<?xml version="1.0" encoding="UTF-8" standalone="no"?>
<!-- Created with Inkscape (http://www.inkscape.org/) -->

<svg
   width="4610"
   height="1000.0001"
   viewBox="0 0 1219.7293 264.58333"
   version="1.1"
   id="svg830"
   xml:space="preserve"
   xmlns="http://www.w3.org/2000/svg"
   xmlns:svg="http://www.w3.org/2000/svg"><defs
     id="defs827" /><g
     id="layer1"><path
       style="fill:#000000;stroke-width:1.32292"
       d="M 41.671885,0 1.9843874,33.072942 V 198.43747 L 107.81767,264.58333 220.26561,198.43747 V 0 L 61.515626,92.604193 v 72.760387 l 46.302044,26.45835 c 0,0 46.18635,-22.4815 46.3021,-26.45835 l 1.3558,-46.57295 -47.6579,26.7292 v -26.45835 l 66.14584,-39.687491 v 99.218741 l -66.14584,39.6875 -66.145785,-39.6875 z"
       id="path531" /></g><g
     id="layer3"
     transform="matrix(1.4959456,0,0,1.4959456,-260.96461,-87.559165)"
     style="display:inline"><path
       id="path252"
       style="display:inline;fill:#000000;stroke-width:0.264583"
       d="M 370.41667,82.020833 V 187.85417 h 68.79166 c 10.58333,0 13.22918,-2.64585 13.22917,-13.22917 v -71.4375 c 10e-6,-15.874984 -7.93751,-21.166667 -21.16667,-21.166667 z m 23.15207,23.903967 h 26.33018 c 5.724,0 9.15862,3.03836 9.15861,12.15275 v 41.01455 c 1e-5,6.07625 -1.14499,7.5954 -5.7242,7.5954 h -29.76459 z" /><path
       style="fill:#000000;stroke-width:0.264583"
       d="m 481.54166,82.020832 h 71.4375 v 23.812498 h -47.625 v 18.52084 h 47.625 v 23.81249 h -47.625 v 15.875 h 47.625 v 23.8125 h -71.4375 z"
       id="path403" /><path
       id="path405"
       style="display:inline;fill:#000000;stroke-width:0.264583"
       d="M 714.37499,82.020836 677.33333,187.85417 h 29.10416 l 7.9375,-15.875 h 23.8125 l 7.9375,15.875 h 29.10417 L 738.18749,82.020836 Z m 11.90625,37.041664 11.90625,31.75 h -23.8125 z" /><path
       style="display:inline;fill:#000000;stroke-width:0.264583"
       d="M 666.75,82.020833 629.70833,187.85417 h -23.8125 l -37.04166,-105.833337 29.10416,-1e-5 19.84376,82.020847 v 0 l 19.84374,-82.020847 z"
       id="path405-6" /><path
       style="fill:#000000;stroke-width:0.264583"
       d="m 796.39583,82.020833 v 23.812497 h 55.56251 v 23.8125 H 809.625 l -13.22917,7.9375 v 50.27083 h 23.8125 V 150.8125 h 7.9375 l 23.8125,37.04166 h 23.8125 L 854.60417,150.8125 875.77083,142.875 V 82.020833 Z"
       id="path764" /><path
       style="fill:#000000;stroke-width:0.264583"
       d="M 904.87499,82.020833 V 187.85416 h 23.8125 v -42.33333 l 31.75,42.33333 h 29.10417 l -34.39583,-52.91666 34.39584,-52.916666 -29.10418,-10e-7 c 0,0 -31.75,50.270827 -31.75,47.624997 V 82.020833 Z"
       id="path766" /></g><g
     id="layer4"
     style="display:inline"
     transform="matrix(1.3976529,0,0,1.3976529,-463.39354,-101.46667)"><g
       aria-label="Solutions"
       id="text838"
       style="font-size:44.0652px;display:inline;fill:#000000;stroke-width:3.6721"><path
         d="m 991.73802,249.42357 q -1.27789,0 -2.64391,-0.0881 -1.32196,-0.0441 -2.73204,-0.17626 -1.36602,-0.17626 -2.59985,-0.35252 -1.23383,-0.22033 -2.24733,-0.48472 v -5.15563 q 1.32196,0.1322 2.99644,0.22033 1.67448,0.0881 3.48115,0.13219 1.80667,0.0441 3.43708,0.0441 1.67448,0 2.86424,-0.26439 1.23383,-0.30846 1.89481,-1.0135 0.66097,-0.74911 0.66097,-2.027 v -1.18976 q 0,-1.45415 -0.8813,-2.20326 -0.83724,-0.79317 -2.42359,-0.79317 h -2.7761 q -4.67091,0 -7.18263,-2.027 -2.46765,-2.07107 -2.46765,-7.00637 v -1.58635 q 0,-4.75904 2.73204,-6.9623 2.73204,-2.20326 7.79954,-2.20326 1.80667,0 3.56928,0.17626 1.80668,0.17626 3.43709,0.44065 1.67444,0.22033 2.86424,0.48472 v 5.15563 q -2.027,-0.1322 -4.53872,-0.26439 -2.46765,-0.1322 -4.58278,-0.1322 -1.49822,0 -2.68798,0.30846 -1.14569,0.26439 -1.76261,1.05756 -0.61691,0.79318 -0.61691,2.24733 v 0.8813 q 0,1.71854 0.96944,2.46765 0.96943,0.74911 2.86423,0.74911 h 3.21676 q 2.95237,0 4.84718,1.10163 1.93889,1.05757 2.86419,2.95237 0.9695,1.8948 0.9695,4.31839 v 1.85074 q 0,3.83367 -1.4542,5.86067 -1.4101,2.027 -3.96584,2.77611 -2.51172,0.70504 -5.90474,0.70504 z"
         style="font-weight:bold;font-family:Exo;-inkscape-font-specification:'Exo Bold';fill:#000000"
         id="path333" /><path
         d="m 1017.6924,249.37951 q -2.9083,0 -4.9794,-0.57285 -2.0711,-0.61691 -3.393,-2.027 -1.2779,-1.41009 -1.8948,-3.74554 -0.5729,-2.33546 -0.5729,-5.77254 0,-3.61335 0.5729,-5.94881 0.6169,-2.37952 1.8948,-3.70147 1.3219,-1.36602 3.393,-1.89481 2.1151,-0.57284 4.9794,-0.57284 2.9523,0 5.0234,0.57284 2.0711,0.57285 3.349,1.93887 1.3219,1.32196 1.8948,3.70148 0.6169,2.33545 0.6169,5.90474 0,3.52521 -0.5729,5.90473 -0.5728,2.33546 -1.8507,3.70148 -1.2779,1.36602 -3.393,1.93887 -2.0711,0.57285 -5.0675,0.57285 z m 0,-5.1997 q 1.1897,0 1.9829,-0.22032 0.8372,-0.22033 1.322,-0.88131 0.5287,-0.70504 0.7931,-2.11513 0.2644,-1.41008 0.2644,-3.70147 0,-2.33546 -0.2644,-3.70148 -0.2644,-1.41009 -0.7931,-2.07107 -0.4848,-0.70504 -1.322,-0.92537 -0.7932,-0.22032 -1.9829,-0.22032 -1.1457,0 -1.983,0.22032 -0.7931,0.22033 -1.3219,0.92537 -0.5288,0.66098 -0.7932,2.07107 -0.2203,1.36602 -0.2203,3.70148 0,2.29139 0.2203,3.70147 0.2644,1.41009 0.7932,2.11513 0.5288,0.66098 1.3219,0.88131 0.8373,0.22032 1.983,0.22032 z"
         style="font-weight:bold;font-family:Exo;-inkscape-font-specification:'Exo Bold';fill:#000000"
         id="path335" /><path
         d="m 1040.2978,249.24731 q -2.5117,0 -4.1862,-0.79317 -1.6304,-0.83724 -2.4236,-2.51172 -0.7932,-1.71854 -0.7932,-4.40652 v -25.99847 h 6.5217 v 25.02904 q 0,1.32195 0.2644,2.11513 0.2643,0.7491 0.7931,1.10163 0.5729,0.35252 1.4101,0.48471 l 1.8067,0.26439 v 4.71498 z"
         style="font-weight:bold;font-family:Exo;-inkscape-font-specification:'Exo Bold';fill:#000000"
         id="path337" /><path
         d="m 1053.3851,249.42357 q -3.1727,0 -4.9793,-1.85074 -1.8067,-1.8948 -1.8067,-5.33189 v -16.74477 h 6.5216 v 14.8059 q 0,1.98294 0.9254,2.68798 0.9694,0.66098 2.5117,0.66098 1.2338,0 2.5117,-0.44065 1.322,-0.48472 2.3355,-1.27789 v -16.43632 h 6.5657 v 23.66301 h -5.42 l -1.1457,-2.42359 q -1.5864,1.05757 -3.6574,1.89481 -2.0711,0.79317 -4.3625,0.79317 z"
         style="font-weight:bold;font-family:Exo;-inkscape-font-specification:'Exo Bold';fill:#000000"
         id="path339" /><path
         d="m 1081.8953,249.15918 q -2.7321,0 -4.4506,-0.79317 -1.6745,-0.79318 -2.4236,-2.64392 -0.7491,-1.85073 -0.661,-4.97936 l 0.2204,-10.0028 h -3.7015 v -4.1862 l 3.9218,-1.05756 0.8813,-6.60978 h 5.1556 v 6.60978 h 5.5522 v 5.24376 h -5.5522 v 9.95873 q 0,0.96944 0.1763,1.58635 0.1762,0.61691 0.4847,1.0135 0.3525,0.35252 0.7932,0.52878 0.4406,0.17626 0.8813,0.22033 l 2.9964,0.26439 v 4.84717 z"
         style="font-weight:bold;font-family:Exo;-inkscape-font-specification:'Exo Bold';fill:#000000"
         id="path341" /><path
         d="m 1090.8405,222.01502 q -0.9254,0 -0.9254,-0.88131 v -4.31839 q 0,-0.92537 0.9254,-0.92537 h 5.0234 q 0.3966,0 0.617,0.26439 0.2203,0.2644 0.2203,0.66098 v 4.31839 q 0,0.88131 -0.8373,0.88131 z m -0.7932,27.14416 v -23.66301 h 6.5217 v 23.66301 z"
         style="font-weight:bold;font-family:Exo;-inkscape-font-specification:'Exo Bold';fill:#000000"
         id="path343" /><path
         d="m 1111.7274,249.37951 q -2.9083,0 -4.9794,-0.57285 -2.0711,-0.61691 -3.393,-2.027 -1.2779,-1.41009 -1.8948,-3.74554 -0.5729,-2.33546 -0.5729,-5.77254 0,-3.61335 0.5729,-5.94881 0.6169,-2.37952 1.8948,-3.70147 1.3219,-1.36602 3.393,-1.89481 2.1151,-0.57284 4.9794,-0.57284 2.9523,0 5.0234,0.57284 2.0711,0.57285 3.349,1.93887 1.3219,1.32196 1.8948,3.70148 0.6169,2.33545 0.6169,5.90474 0,3.52521 -0.5729,5.90473 -0.5728,2.33546 -1.8507,3.70148 -1.2779,1.36602 -3.393,1.93887 -2.0711,0.57285 -5.0675,0.57285 z m 0,-5.1997 q 1.1897,0 1.9829,-0.22032 0.8373,-0.22033 1.322,-0.88131 0.5288,-0.70504 0.7931,-2.11513 0.2644,-1.41008 0.2644,-3.70147 0,-2.33546 -0.2644,-3.70148 -0.2643,-1.41009 -0.7931,-2.07107 -0.4847,-0.70504 -1.322,-0.92537 -0.7932,-0.22032 -1.9829,-0.22032 -1.1457,0 -1.983,0.22032 -0.7931,0.22033 -1.3219,0.92537 -0.5288,0.66098 -0.7932,2.07107 -0.2203,1.36602 -0.2203,3.70148 0,2.29139 0.2203,3.70147 0.2644,1.41009 0.7932,2.11513 0.5288,0.66098 1.3219,0.88131 0.8373,0.22032 1.983,0.22032 z"
         style="font-weight:bold;font-family:Exo;-inkscape-font-specification:'Exo Bold';fill:#000000"
         id="path345" /><path
         d="m 1126.9298,249.15918 v -23.66301 h 5.376 l 1.1457,2.42358 q 1.3219,-1.10163 3.3049,-1.93887 2.027,-0.8813 4.1421,-0.8813 2.9083,0 4.4946,1.1457 1.5864,1.14569 2.2033,3.08456 0.661,1.8948 0.661,4.23026 v 15.59908 h -6.5217 v -14.76184 q 0,-1.1457 -0.4406,-1.89481 -0.3966,-0.7491 -1.1457,-1.14569 -0.7491,-0.39659 -1.8067,-0.39659 -0.9254,0 -1.8067,0.22033 -0.8372,0.22032 -1.6304,0.61691 -0.7491,0.39659 -1.4541,0.92537 v 16.43632 z"
         style="font-weight:bold;font-family:Exo;-inkscape-font-specification:'Exo Bold';fill:#000000"
         id="path347" /><path
         d="m 1161.7413,249.42357 q -1.1016,0 -2.3795,-0.0881 -1.2779,-0.0441 -2.5558,-0.17626 -1.2779,-0.1322 -2.3795,-0.30846 -1.1017,-0.22032 -1.8508,-0.48471 v -3.83368 h 10.4876 q 0.9253,0 1.4982,-0.13219 0.6169,-0.17626 0.8813,-0.57285 0.3084,-0.44065 0.3084,-1.23383 v -0.7491 q 0,-0.88131 -0.5728,-1.36602 -0.5729,-0.48472 -2.1151,-0.48472 h -3.7015 q -2.027,0 -3.6574,-0.61691 -1.6304,-0.61692 -2.5999,-2.027 -0.9253,-1.41009 -0.9253,-3.78961 v -1.36602 q 0,-2.24733 0.8813,-3.78961 0.8813,-1.54228 2.9523,-2.33546 2.0711,-0.79317 5.6844,-0.79317 1.4542,0 3.0846,0.17626 1.6745,0.1322 3.1286,0.39659 1.4982,0.22032 2.3796,0.52878 v 3.83367 h -9.9147 q -1.2779,0 -1.9389,0.44066 -0.661,0.39658 -0.661,1.54228 v 0.70504 q 0,0.79317 0.3085,1.18976 0.3084,0.35252 0.9254,0.52878 0.6609,0.1322 1.6304,0.1322 h 3.7896 q 3.6133,0 5.2437,1.67448 1.6745,1.63041 1.6745,4.53871 v 2.11513 q 0,2.37952 -1.1457,3.78961 -1.1016,1.36602 -3.2608,1.98293 -2.1151,0.57285 -5.1997,0.57285 z"
         style="font-weight:bold;font-family:Exo;-inkscape-font-specification:'Exo Bold';fill:#000000"
         id="path349" /></g></g><g
     id="layer4-5"
     transform="translate(-458.86945,20.14598)"
     style="display:none"><g
       aria-label="Connect - Digitize - Innovate"
       id="text838-9"
       style="font-size:61.7458px;display:inline;fill:#ffffff;stroke-width:5.14549"><path
         d="m 832.97054,226.99587 q -4.01348,0 -7.10077,-0.92619 -3.02554,-0.92618 -5.18664,-3.39601 -2.09936,-2.46984 -3.21079,-7.03903 -1.04967,-4.63093 -1.04967,-11.97868 0,-7.10077 1.11142,-11.60821 1.17317,-4.56919 3.33427,-7.03902 2.16111,-2.53158 5.2484,-3.51951 3.08729,-0.98794 6.97727,-0.98794 3.08729,0 5.74236,0.37048 2.71682,0.30873 4.87792,0.80269 2.1611,0.43222 3.643,0.98794 v 7.10076 q -1.11142,-0.24698 -3.02554,-0.49396 -1.85238,-0.24699 -4.26046,-0.37048 -2.40809,-0.18523 -5.06316,-0.18523 -2.59332,0 -4.4457,0.61745 -1.79062,0.55572 -2.90205,2.16111 -1.04968,1.54364 -1.60539,4.50744 -0.49397,2.9638 -0.49397,7.71822 0,4.56919 0.43222,7.53299 0.49397,2.9638 1.54365,4.63094 1.04968,1.60539 2.84031,2.28459 1.85237,0.61746 4.63093,0.61746 4.69268,0 7.59473,-0.18524 2.9638,-0.18523 4.75443,-0.43222 v 7.03902 q -1.66714,0.55572 -3.82824,0.98794 -2.1611,0.37047 -4.75443,0.55571 -2.59332,0.24698 -5.8041,0.24698 z"
         style="font-weight:bold;font-family:Exo;-inkscape-font-specification:'Exo Bold'"
         id="path282" /><path
         d="m 866.93062,226.93413 q -4.07522,0 -6.97727,-0.8027 -2.90205,-0.86444 -4.75443,-2.84031 -1.79063,-1.97586 -2.65507,-5.24839 -0.80269,-3.27253 -0.80269,-8.0887 0,-5.06315 0.80269,-8.33568 0.86444,-3.33428 2.65507,-5.18665 1.85238,-1.91412 4.75443,-2.65507 2.9638,-0.80269 6.97727,-0.80269 4.13697,0 7.03903,0.80269 2.90205,0.8027 4.69268,2.71682 1.85237,1.85237 2.65507,5.18664 0.86444,3.27253 0.86444,8.27394 0,4.93966 -0.8027,8.27394 -0.80269,3.27253 -2.59332,5.18665 -1.79063,1.91411 -4.75443,2.71681 -2.90205,0.8027 -7.10077,0.8027 z m 0,-7.28601 q 1.66714,0 2.77857,-0.30873 1.17317,-0.30873 1.85237,-1.23491 0.74095,-0.98794 1.11142,-2.9638 0.37048,-1.97587 0.37048,-5.18665 0,-3.27253 -0.37048,-5.18665 -0.37047,-1.97586 -1.11142,-2.90205 -0.6792,-0.98793 -1.85237,-1.29666 -1.11143,-0.30873 -2.77857,-0.30873 -1.60539,0 -2.77856,0.30873 -1.11142,0.30873 -1.85237,1.29666 -0.74095,0.92619 -1.11143,2.90205 -0.30872,1.91412 -0.30872,5.18665 0,3.21078 0.30872,5.18665 0.37048,1.97586 1.11143,2.9638 0.74095,0.92618 1.85237,1.23491 1.17317,0.30873 2.77856,0.30873 z"
         style="font-weight:bold;font-family:Exo;-inkscape-font-specification:'Exo Bold'"
         id="path284" /><path
         d="m 888.23286,226.6254 v -33.1575 h 7.53299 l 1.60539,3.39602 q 1.85237,-1.54364 4.63093,-2.71681 2.84031,-1.23492 5.80411,-1.23492 4.07522,0 6.29807,1.60539 2.22285,1.60539 3.08729,4.32221 0.92619,2.65507 0.92619,5.92759 v 21.85802 h -9.13838 v -20.68485 q 0,-1.60539 -0.61746,-2.65507 -0.55571,-1.04967 -1.60539,-1.60539 -1.04968,-0.55571 -2.53158,-0.55571 -1.29666,0 -2.53158,0.30873 -1.17317,0.30873 -2.28459,0.86444 -1.04968,0.55571 -2.03761,1.29666 v 23.03119 z"
         style="font-weight:bold;font-family:Exo;-inkscape-font-specification:'Exo Bold'"
         id="path286" /><path
         d="m 924.97157,226.6254 v -33.1575 h 7.53299 l 1.60539,3.39602 q 1.85237,-1.54364 4.63093,-2.71681 2.84031,-1.23492 5.80411,-1.23492 4.07522,0 6.29807,1.60539 2.22285,1.60539 3.08729,4.32221 0.92618,2.65507 0.92618,5.92759 v 21.85802 h -9.13837 v -20.68485 q 0,-1.60539 -0.61746,-2.65507 -0.55571,-1.04967 -1.60539,-1.60539 -1.04968,-0.55571 -2.53158,-0.55571 -1.29666,0 -2.53158,0.30873 -1.17317,0.30873 -2.28459,0.86444 -1.04968,0.55571 -2.03761,1.29666 v 23.03119 z"
         style="font-weight:bold;font-family:Exo;-inkscape-font-specification:'Exo Bold'"
         id="path288" /><path
         d="m 975.66483,226.93413 q -5.49538,0 -8.76791,-1.42016 -3.27252,-1.4819 -4.75442,-5.18664 -1.42016,-3.70475 -1.42016,-10.24981 0,-6.73029 1.35841,-10.43504 1.35841,-3.70475 4.56919,-5.18665 3.21078,-1.48189 8.70616,-1.48189 4.93966,0 7.90346,0.98793 2.9638,0.98793 4.26046,3.45776 1.35841,2.46984 1.35841,6.97728 0,3.33427 -1.35841,5.31014 -1.29666,1.91412 -3.70475,2.77856 -2.40808,0.80269 -5.68061,0.80269 h -8.33568 q 0.12349,2.53158 0.74095,4.07523 0.6792,1.4819 2.40808,2.1611 1.79063,0.61746 5.1249,0.61746 h 9.69409 v 5.37188 q -2.40808,0.49397 -5.31014,0.98794 -2.8403,0.43222 -6.79203,0.43222 z m -5.98935,-19.07946 h 7.53299 q 1.85238,0 2.71682,-0.74095 0.86444,-0.74095 0.86444,-2.65507 0,-1.79062 -0.55571,-2.8403 -0.55572,-1.11143 -1.72889,-1.54365 -1.17317,-0.49396 -3.14903,-0.49396 -2.09936,0 -3.33428,0.74095 -1.23491,0.6792 -1.79062,2.46983 -0.55572,1.79063 -0.55572,5.06315 z"
         style="font-weight:bold;font-family:Exo;-inkscape-font-specification:'Exo Bold'"
         id="path290" /><path
         d="m 1007.7726,226.99587 q -3.0256,0 -5.6189,-0.80269 -2.53159,-0.8027 -4.38396,-2.65507 -1.85238,-1.91412 -2.90205,-5.1249 -0.98794,-3.27253 -0.98794,-8.2122 0,-5.06315 0.92619,-8.39742 0.92619,-3.33428 2.71682,-5.2484 1.85237,-1.97586 4.50744,-2.77856 2.6551,-0.80269 5.9893,-0.80269 3.0256,0 5.7424,0.37047 2.7786,0.30873 5.8041,1.17317 v 5.24839 h -8.7062 q -2.8403,0 -4.5691,0.86444 -1.7289,0.8027 -2.5316,3.08729 -0.741,2.22285 -0.741,6.42157 0,4.13697 0.741,6.29807 0.8027,2.1611 2.5316,2.90205 1.7906,0.74095 4.6926,0.74095 h 9.0767 v 5.18665 q -1.5437,0.49397 -3.5813,0.92619 -2.0376,0.37047 -4.3222,0.55571 -2.2228,0.24698 -4.3839,0.24698 z"
         style="font-weight:bold;font-family:Exo;-inkscape-font-specification:'Exo Bold'"
         id="path292" /><path
         d="m 1037.7193,226.6254 q -3.8283,0 -6.2364,-1.11143 -2.3463,-1.11142 -3.396,-3.70475 -1.0497,-2.59332 -0.9262,-6.97727 l 0.3088,-14.0163 h -5.1867 v -5.86585 l 5.4954,-1.4819 1.2349,-9.26187 h 7.2243 v 9.26187 h 7.7799 v 7.34775 h -7.7799 v 13.95455 q 0,1.35841 0.2469,2.22285 0.247,0.86444 0.6792,1.42016 0.494,0.49396 1.1115,0.74094 0.6174,0.24699 1.2349,0.30873 l 4.1987,0.37048 v 6.79204 z"
         style="font-weight:bold;font-family:Exo;-inkscape-font-specification:'Exo Bold'"
         id="path294" /><path
         d="m 1062.9115,212.42386 v -7.40949 h 18.8942 v 7.40949 z"
         style="font-weight:bold;font-family:Exo;-inkscape-font-specification:'Exo Bold'"
         id="path296" /><path
         d="m 1103.0462,226.6254 v -45.6919 h 19.3264 q 4.6309,0 7.7182,1.66714 3.0873,1.60539 4.8779,4.69268 1.8524,3.02555 2.5934,7.22426 0.7409,4.19872 0.7409,9.26187 0,7.71823 -1.7906,12.78138 -1.7289,5.06316 -5.2484,7.59473 -3.5195,2.46984 -8.8914,2.46984 z m 9.1383,-8.21219 h 9.2619 q 2.8403,0 4.5074,-1.6054 1.6672,-1.66713 2.4081,-4.93966 0.8027,-3.27253 0.8027,-8.0887 0,-4.4457 -0.4939,-7.286 -0.494,-2.90206 -1.4819,-4.50745 -0.9262,-1.60539 -2.4081,-2.22285 -1.4202,-0.61745 -3.3343,-0.61745 h -9.2619 z"
         style="font-weight:bold;font-family:Exo;-inkscape-font-specification:'Exo Bold'"
         id="path298" /><path
         d="m 1145.7124,188.58998 q -1.2967,0 -1.2967,-1.23491 v -6.05109 q 0,-1.29666 1.2967,-1.29666 h 7.039 q 0.5557,0 0.8644,0.37047 0.3088,0.37048 0.3088,0.92619 v 6.05109 q 0,1.23491 -1.1732,1.23491 z m -1.1114,38.03542 v -33.1575 h 9.1383 v 33.1575 z"
         style="font-weight:bold;font-family:Exo;-inkscape-font-specification:'Exo Bold'"
         id="path300" /><path
         d="m 1169.361,241.93836 q -3.149,0 -5.6189,-0.92619 -2.4081,-0.92619 -3.8282,-2.71682 -1.4202,-1.72888 -1.4202,-4.3222 v -0.98794 q 0,-2.65507 1.4819,-4.56919 1.5437,-1.85237 3.9518,-2.8403 2.4081,-0.98793 5.1249,-0.98793 l 2.7168,2.8403 q -1.3584,0 -2.4081,0.43222 -1.0497,0.43222 -1.6671,1.23492 -0.5558,0.86444 -0.5558,2.09936 v 0.6792 q 0,1.79063 1.235,2.71681 1.2349,0.92619 3.5195,0.92619 h 6.298 q 2.2846,0 3.643,-0.92619 1.4202,-0.86444 1.4202,-2.65506 v -0.98794 q 0,-1.11142 -0.5557,-1.91412 -0.494,-0.74095 -1.5437,-1.17317 -0.9879,-0.43222 -2.7168,-0.43222 h -7.3477 q -5.5571,0 -8.274,-2.03761 -2.655,-2.09936 -2.655,-5.1249 0,-2.53158 1.4201,-4.19872 1.4819,-1.72888 4.0752,-2.28459 -1.9758,-1.04968 -3.149,-2.53158 -1.1732,-1.54364 -1.6671,-3.27252 -0.494,-1.79063 -0.494,-3.70475 0,-3.64301 1.4819,-6.05109 1.5437,-2.40809 4.5692,-3.58126 3.0873,-1.17317 7.7182,-1.17317 h 17.9681 v 5.00141 l -5.0632,0.92619 q 0.5557,0.61746 1.1114,1.4819 0.5557,0.80269 0.9262,2.1611 0.4322,1.29666 0.4322,3.27253 0,2.84031 -1.2349,5.1249 -1.1732,2.28459 -3.8282,3.643 -2.5934,1.35841 -6.9156,1.35841 h -5.8658 q -1.6671,0 -2.7168,0.49397 -1.0497,0.49396 -1.0497,1.79062 0,1.04968 0.8644,1.4819 0.9262,0.37048 2.0376,0.37048 h 9.1384 q 3.8283,0 6.4833,0.98793 2.6551,0.98793 4.0753,3.21078 1.4201,2.16111 1.4201,5.74236 v 0.92619 q 0,4.87792 -3.0873,7.65648 -3.0873,2.84031 -9.5088,2.84031 z m 3.5813,-32.3548 h 3.5195 q 1.9141,0 2.902,-0.55572 1.0497,-0.61745 1.4202,-1.60539 0.4322,-1.04968 0.4322,-2.40808 0,-1.72889 -0.5557,-2.77856 -0.494,-1.04968 -1.4819,-1.4819 -0.988,-0.43222 -2.4699,-0.43222 h -3.4577 q -2.3464,0 -3.5195,1.04967 -1.1732,0.98794 -1.1732,3.51952 0,2.40808 1.1114,3.58125 1.1114,1.11143 3.2726,1.11143 z"
         style="font-weight:bold;font-family:Exo;-inkscape-font-specification:'Exo Bold'"
         id="path302" /><path
         d="m 1197.8257,188.58998 q -1.2966,0 -1.2966,-1.23491 v -6.05109 q 0,-1.29666 1.2966,-1.29666 h 7.039 q 0.5558,0 0.8645,0.37047 0.3087,0.37048 0.3087,0.92619 v 6.05109 q 0,1.23491 -1.1732,1.23491 z m -1.1114,38.03542 v -33.1575 h 9.1384 v 33.1575 z"
         style="font-weight:bold;font-family:Exo;-inkscape-font-specification:'Exo Bold'"
         id="path304" /><path
         d="m 1225.4878,226.6254 q -3.8283,0 -6.2363,-1.11143 -2.3464,-1.11142 -3.3961,-3.70475 -1.0496,-2.59332 -0.9261,-6.97727 l 0.3087,-14.0163 h -5.1867 v -5.86585 l 5.4954,-1.4819 1.2349,-9.26187 h 7.2243 v 9.26187 h 7.78 v 7.34775 h -7.78 v 13.95455 q 0,1.35841 0.247,2.22285 0.247,0.86444 0.6792,1.42016 0.4939,0.49396 1.1114,0.74094 0.6175,0.24699 1.2349,0.30873 l 4.1987,0.37048 v 6.79204 z"
         style="font-weight:bold;font-family:Exo;-inkscape-font-specification:'Exo Bold'"
         id="path306" /><path
         d="m 1238.0222,188.58998 q -1.2967,0 -1.2967,-1.23491 v -6.05109 q 0,-1.29666 1.2967,-1.29666 h 7.039 q 0.5557,0 0.8644,0.37047 0.3088,0.37048 0.3088,0.92619 v 6.05109 q 0,1.23491 -1.1732,1.23491 z m -1.1115,38.03542 v -33.1575 h 9.1384 v 33.1575 z"
         style="font-weight:bold;font-family:Exo;-inkscape-font-specification:'Exo Bold'"
         id="path308" /><path
         d="m 1252.3472,226.6254 v -6.6068 l 15.6217,-19.20295 h -16.2392 v -7.34775 h 26.8594 v 6.6068 l -15.6834,19.20295 h 15.6834 v 7.34775 z"
         style="font-weight:bold;font-family:Exo;-inkscape-font-specification:'Exo Bold'"
         id="path310" /><path
         d="m 1298.2242,226.93413 q -5.4953,0 -8.7679,-1.42016 -3.2725,-1.4819 -4.7544,-5.18664 -1.4201,-3.70475 -1.4201,-10.24981 0,-6.73029 1.3584,-10.43504 1.3584,-3.70475 4.5692,-5.18665 3.2107,-1.48189 8.7061,-1.48189 4.9397,0 7.9035,0.98793 2.9638,0.98793 4.2604,3.45776 1.3584,2.46984 1.3584,6.97728 0,3.33427 -1.3584,5.31014 -1.2966,1.91412 -3.7047,2.77856 -2.4081,0.80269 -5.6806,0.80269 h -8.3357 q 0.1235,2.53158 0.7409,4.07523 0.6792,1.4819 2.4081,2.1611 1.7907,0.61746 5.1249,0.61746 h 9.6941 v 5.37188 q -2.4081,0.49397 -5.3101,0.98794 -2.8403,0.43222 -6.7921,0.43222 z m -5.9893,-19.07946 h 7.533 q 1.8524,0 2.7168,-0.74095 0.8644,-0.74095 0.8644,-2.65507 0,-1.79062 -0.5557,-2.8403 -0.5557,-1.11143 -1.7288,-1.54365 -1.1732,-0.49396 -3.1491,-0.49396 -2.0993,0 -3.3343,0.74095 -1.2349,0.6792 -1.7906,2.46983 -0.5557,1.79063 -0.5557,5.06315 z"
         style="font-weight:bold;font-family:Exo;-inkscape-font-specification:'Exo Bold'"
         id="path312" /><path
         d="m 1331.1964,212.42386 v -7.40949 h 18.8942 v 7.40949 z"
         style="font-weight:bold;font-family:Exo;-inkscape-font-specification:'Exo Bold'"
         id="path314" /><path
         d="m 1371.331,226.6254 v -45.6919 h 9.1384 v 45.6919 z"
         style="font-weight:bold;font-family:Exo;-inkscape-font-specification:'Exo Bold'"
         id="path316" /><path
         d="m 1387.9406,226.6254 v -33.1575 h 7.533 l 1.6054,3.39602 q 1.8523,-1.54364 4.6309,-2.71681 2.8403,-1.23492 5.8041,-1.23492 4.0752,0 6.2981,1.60539 2.2228,1.60539 3.0873,4.32221 0.9262,2.65507 0.9262,5.92759 v 21.85802 h -9.1384 v -20.68485 q 0,-1.60539 -0.6175,-2.65507 -0.5557,-1.04967 -1.6054,-1.60539 -1.0496,-0.55571 -2.5315,-0.55571 -1.2967,0 -2.5316,0.30873 -1.1732,0.30873 -2.2846,0.86444 -1.0497,0.55571 -2.0376,1.29666 v 23.03119 z"
         style="font-weight:bold;font-family:Exo;-inkscape-font-specification:'Exo Bold'"
         id="path318" /><path
         d="m 1424.6793,226.6254 v -33.1575 h 7.533 l 1.6054,3.39602 q 1.8524,-1.54364 4.6309,-2.71681 2.8403,-1.23492 5.8041,-1.23492 4.0752,0 6.2981,1.60539 2.2228,1.60539 3.0873,4.32221 0.9262,2.65507 0.9262,5.92759 v 21.85802 h -9.1384 v -20.68485 q 0,-1.60539 -0.6175,-2.65507 -0.5557,-1.04967 -1.6054,-1.60539 -1.0496,-0.55571 -2.5315,-0.55571 -1.2967,0 -2.5316,0.30873 -1.1732,0.30873 -2.2846,0.86444 -1.0497,0.55571 -2.0376,1.29666 v 23.03119 z"
         style="font-weight:bold;font-family:Exo;-inkscape-font-specification:'Exo Bold'"
         id="path320" /><path
         d="m 1475.6195,226.93413 q -4.0752,0 -6.9772,-0.8027 -2.9021,-0.86444 -4.7545,-2.84031 -1.7906,-1.97586 -2.655,-5.24839 -0.8027,-3.27253 -0.8027,-8.0887 0,-5.06315 0.8027,-8.33568 0.8644,-3.33428 2.655,-5.18665 1.8524,-1.91412 4.7545,-2.65507 2.9638,-0.80269 6.9772,-0.80269 4.137,0 7.0391,0.80269 2.902,0.8027 4.6926,2.71682 1.8524,1.85237 2.6551,5.18664 0.8645,3.27253 0.8645,8.27394 0,4.93966 -0.8027,8.27394 -0.8027,3.27253 -2.5934,5.18665 -1.7906,1.91411 -4.7544,2.71681 -2.902,0.8027 -7.1008,0.8027 z m 0,-7.28601 q 1.6672,0 2.7786,-0.30873 1.1732,-0.30873 1.8524,-1.23491 0.7409,-0.98794 1.1114,-2.9638 0.3705,-1.97587 0.3705,-5.18665 0,-3.27253 -0.3705,-5.18665 -0.3705,-1.97586 -1.1114,-2.90205 -0.6792,-0.98793 -1.8524,-1.29666 -1.1114,-0.30873 -2.7786,-0.30873 -1.6053,0 -2.7785,0.30873 -1.1114,0.30873 -1.8524,1.29666 -0.7409,0.92619 -1.1114,2.90205 -0.3087,1.91412 -0.3087,5.18665 0,3.21078 0.3087,5.18665 0.3705,1.97586 1.1114,2.9638 0.741,0.92618 1.8524,1.23491 1.1732,0.30873 2.7785,0.30873 z"
         style="font-weight:bold;font-family:Exo;-inkscape-font-specification:'Exo Bold'"
         id="path322" /><path
         d="m 1504.0225,226.6254 -11.1143,-33.1575 h 9.4472 l 7.1625,24.69832 7.3477,-24.69832 h 9.3236 l -11.6082,33.1575 z"
         style="font-weight:bold;font-family:Exo;-inkscape-font-specification:'Exo Bold'"
         id="path324" /><path
         d="m 1536.3155,226.99587 q -3.7665,0 -6.1128,-2.22285 -2.3464,-2.22285 -2.3464,-6.17458 v -2.9638 q 0,-3.76649 2.6551,-6.17458 2.6551,-2.46983 8.2739,-2.46983 h 8.4592 v -2.28459 q 0,-1.54365 -0.5557,-2.53158 -0.5557,-1.04968 -2.0994,-1.4819 -1.4819,-0.49397 -4.5692,-0.49397 h -9.941 v -5.31013 q 2.4081,-0.74095 5.5571,-1.29667 3.2108,-0.55571 7.7182,-0.55571 4.137,0 7.039,0.98793 2.9638,0.98794 4.4457,3.39602 1.5437,2.40809 1.5437,6.66855 v 22.53722 h -7.2243 l -1.4819,-3.51951 q -0.4322,0.49396 -1.4819,1.11142 -1.0497,0.61746 -2.5933,1.29666 -1.4819,0.61746 -3.396,1.04968 -1.8524,0.43222 -3.89,0.43222 z m 4.6309,-6.35982 q 0.6175,0 1.3584,-0.12349 0.8027,-0.18523 1.6054,-0.37047 0.8645,-0.24699 1.5437,-0.43222 0.7409,-0.24699 1.1731,-0.43222 0.494,-0.18524 0.6175,-0.24699 v -7.71822 l -5.5571,0.37047 q -2.4081,0.18524 -3.5813,1.23492 -1.1114,1.04968 -1.1114,2.84031 v 1.3584 q 0,1.23492 0.494,2.03761 0.5557,0.8027 1.4201,1.17318 0.9262,0.30872 2.0376,0.30872 z"
         style="font-weight:bold;font-family:Exo;-inkscape-font-specification:'Exo Bold'"
         id="path326" /><path
         d="m 1575.8328,226.6254 q -3.8283,0 -6.2364,-1.11143 -2.3463,-1.11142 -3.396,-3.70475 -1.0497,-2.59332 -0.9262,-6.97727 l 0.3088,-14.0163 h -5.1867 v -5.86585 l 5.4954,-1.4819 1.2349,-9.26187 h 7.2243 v 9.26187 h 7.7799 v 7.34775 h -7.7799 v 13.95455 q 0,1.35841 0.2469,2.22285 0.247,0.86444 0.6792,1.42016 0.494,0.49396 1.1115,0.74094 0.6174,0.24699 1.2349,0.30873 l 4.1987,0.37048 v 6.79204 z"
         style="font-weight:bold;font-family:Exo;-inkscape-font-specification:'Exo Bold'"
         id="path328" /><path
         d="m 1601.2103,226.93413 q -5.4954,0 -8.7679,-1.42016 -3.2726,-1.4819 -4.7545,-5.18664 -1.4201,-3.70475 -1.4201,-10.24981 0,-6.73029 1.3584,-10.43504 1.3584,-3.70475 4.5692,-5.18665 3.2108,-1.48189 8.7061,-1.48189 4.9397,0 7.9035,0.98793 2.9638,0.98793 4.2605,3.45776 1.3584,2.46984 1.3584,6.97728 0,3.33427 -1.3584,5.31014 -1.2967,1.91412 -3.7048,2.77856 -2.4081,0.80269 -5.6806,0.80269 h -8.3357 q 0.1235,2.53158 0.741,4.07523 0.6792,1.4819 2.4081,2.1611 1.7906,0.61746 5.1249,0.61746 h 9.694 v 5.37188 q -2.408,0.49397 -5.3101,0.98794 -2.8403,0.43222 -6.792,0.43222 z m -5.9894,-19.07946 h 7.533 q 1.8524,0 2.7168,-0.74095 0.8645,-0.74095 0.8645,-2.65507 0,-1.79062 -0.5557,-2.8403 -0.5558,-1.11143 -1.7289,-1.54365 -1.1732,-0.49396 -3.1491,-0.49396 -2.0993,0 -3.3342,0.74095 -1.235,0.6792 -1.7907,2.46983 -0.5557,1.79063 -0.5557,5.06315 z"
         style="font-weight:bold;font-family:Exo;-inkscape-font-specification:'Exo Bold'"
         id="path330" /></g></g></svg>
